<svg viewBox="0 0 100 100" fill="none" xmlns="http://www.w3.org/2000/svg">
  <rect width="100" height="100" rx="20" fill="white"/>
  <defs>
    <linearGradient id="favicon-gradient" x1="0%" y1="0%" x2="100%" y2="100%">
      <stop offset="0%" stop-color="#6366F1"/>
      <stop offset="100%" stop-color="#9333EA"/>
    </linearGradient>
  </defs>
  
  <!-- Shopping bag shape -->
  <path d="M25 35 L25 80 Q25 90 35 90 L65 90 Q75 90 75 80 L75 35" 
        stroke="url(#favicon-gradient)" 
        stroke-width="4" 
        fill="none"/>
  
  <!-- Bag handle -->
  <path d="M35 35 Q35 20 50 20 Q65 20 65 35" 
        stroke="url(#favicon-gradient)" 
        stroke-width="4" 
        fill="none"/>
  
  <!-- S letter -->
  <path d="M40 50 Q40 45 45 45 L50 45 Q55 45 55 50 Q55 55 50 55 L45 55 Q40 55 40 60 Q40 65 45 65 L55 65 Q60 65 60 60" 
        stroke="url(#favicon-gradient)" 
        stroke-width="3" 
        fill="none" 
        stroke-linecap="round"/>
  
  <!-- H letter -->
  <path d="M40 70 L40 85 M55 70 L55 85 M40 77.5 L55 77.5" 
        stroke="url(#favicon-gradient)" 
        stroke-width="3" 
        stroke-linecap="round"/>
</svg>